<?xml version="1.0" encoding="UTF-8"?>
<svg width="92px" height="92px" viewBox="0 0 92 92" version="1.1" xmlns="http://www.w3.org/2000/svg" xmlns:xlink="http://www.w3.org/1999/xlink">
    <title>Artboard</title>
    <g id="Artboard" stroke="none" stroke-width="1" fill="none" fill-rule="evenodd">
        <rect fill="#FFFFFF" opacity="0" x="0" y="0" width="92" height="92"></rect>
        <g id="􀉬" transform="translate(0.7722, 3.0137)" fill="#DAC0A3" fill-rule="nonzero">
            <path d="M41.9793091,59.9419556 C39.3143921,59.9419556 37.446167,59.5558777 36.3746338,58.7837219 C35.3031006,58.0115662 34.767334,56.8796997 34.767334,55.3881226 C34.767334,53.2388306 35.4146118,50.9833374 36.7091675,48.6216431 C38.0037231,46.2599487 39.8737793,44.0501404 42.3193359,41.992218 C44.7648926,39.9342957 47.7131653,38.2572327 51.1641541,36.9610291 C54.6151428,35.6648254 58.4968872,35.0167236 62.8093872,35.0167236 C67.1218872,35.0167236 71.0041809,35.6648254 74.4562683,36.9610291 C77.9083557,38.2572327 80.8512268,39.9342957 83.2848816,41.992218 C85.7185364,44.0501404 87.5832825,46.2599487 88.8791199,48.6216431 C90.1749573,50.9833374 90.822876,53.2388306 90.822876,55.3881226 C90.822876,56.8796997 90.2870178,58.0115662 89.2153015,58.7837219 C88.1435852,59.5558777 86.2752686,59.9419556 83.6103516,59.9419556 L41.9793091,59.9419556 Z M62.8093872,29.1022339 C60.4194946,29.1022339 58.207489,28.4490051 56.1733704,27.1425476 C54.1392517,25.8360901 52.5116272,24.072052 51.2904968,21.8504333 C50.0693665,19.6288147 49.4588013,17.1447144 49.4588013,14.3981323 C49.4588013,11.6837769 50.0746765,9.24343872 51.306427,7.07711792 C52.5381775,4.91079712 54.1663513,3.18969727 56.1909485,1.91381836 C58.2155457,0.637939453 60.4216919,0 62.8093872,0 C65.1967163,0 67.402771,0.627319336 69.4275513,1.88195801 C71.4523315,3.13659668 73.0805054,4.84661865 74.3120728,7.01202393 C75.5436401,9.1774292 76.1594238,11.6171265 76.1594238,14.3311157 C76.1594238,17.1015015 75.5494995,19.6027222 74.3296509,21.8347778 C73.1098022,24.0668335 71.4880371,25.8360901 69.4643555,27.1425476 C67.4406738,28.4490051 65.2223511,29.1022339 62.8093872,29.1022339 Z M6.02050781,59.9458008 C3.84338379,59.9458008 2.29568481,59.5177002 1.37741089,58.661499 C0.459136963,57.8052979 0,56.6015625 0,55.050293 C0,52.7548828 0.56817627,50.4320984 1.70452881,48.0819397 C2.84088135,45.731781 4.47583008,43.5615234 6.609375,41.571167 C8.74291992,39.5808105 11.310791,37.9743347 14.3129883,36.7517395 C17.3151855,35.5291443 20.682312,34.9178467 24.4143677,34.9178467 C27.4795532,34.9178467 30.2140503,35.31427 32.6178589,36.1071167 C35.0216675,36.8999634 37.1425781,37.9026489 38.9805908,39.1151733 C37.1374512,40.543396 35.5333557,42.1881409 34.1683044,44.049408 C32.8032532,45.910675 31.7366638,47.8196411 30.9685364,49.7763062 C30.2004089,51.7329712 29.8094788,53.6036682 29.7957458,55.3883972 C29.7820129,57.1731262 30.2144165,58.6922607 31.0929565,59.9458008 L6.02050781,59.9458008 Z M24.446228,29.8372192 C22.3632202,29.8372192 20.4394226,29.2718811 18.6748352,28.1412048 C16.9102478,27.0105286 15.4894409,25.4755554 14.4124146,23.5362854 C13.3353882,21.5970154 12.796875,19.4415894 12.796875,17.0700073 C12.796875,14.7050171 13.3359375,12.5752258 14.4140625,10.6806335 C15.4921875,8.78604126 16.9135437,7.28347778 18.6781311,6.17294312 C20.4427185,5.06240845 22.3654175,4.50714111 24.446228,4.50714111 C26.5266724,4.50714111 28.4491882,5.05178833 30.2137756,6.14108276 C31.978363,7.2303772 33.3949585,8.71710205 34.463562,10.6012573 C35.5321655,12.4854126 36.0664673,14.6193237 36.0664673,17.0029907 C36.0664673,19.3983765 35.5327148,21.5656128 34.46521,23.5046997 C33.3977051,25.4437866 31.9816589,26.9839783 30.2170715,28.1252747 C28.4524841,29.266571 26.5288696,29.8372192 24.446228,29.8372192 Z" id="Shape"></path>
        </g>
        <g id="Task-Copy-3" transform="translate(50.534, 64.447) rotate(-2) translate(-50.534, -64.447)translate(14.0165, 41.9467)">
            <rect id="Rectangle" stroke="#102C57" stroke-width="1.6" fill="#FFFFFF" x="0.8" y="0.8" width="60.3350089" height="42.4" rx="8"></rect>
            <line x1="11.916481" y1="12.3777107" x2="45.8340021" y2="10.9919226" id="Line-Copy" stroke="#102C57" stroke-width="1.6" stroke-linecap="square" transform="translate(28.8752, 11.6848) rotate(2) translate(-28.8752, -11.6848)"></line>
            <line x1="11.9244295" y1="10.80656" x2="45.8419506" y2="9.42077186" id="Line-Copy-2" stroke="#102C57" stroke-width="1.6" stroke-linecap="square" transform="translate(28.8832, 10.1137) rotate(2) translate(-28.8832, -10.1137)"></line>
            <line x1="11.9105786" y1="19.6428571" x2="51.6125074" y2="19.6428571" id="Line-2" stroke="#102C57" stroke-width="1.6" stroke-linecap="square"></line>
            <line x1="11.6530452" y1="27.0253884" x2="51.354974" y2="27.0253884" id="Line-2-Copy" stroke="#102C57" stroke-width="1.6" stroke-linecap="square"></line>
            <line x1="11.3955118" y1="34.4079197" x2="51.0974406" y2="34.4079197" id="Line-2-Copy-3" stroke="#102C57" stroke-width="1.6" stroke-linecap="square"></line>
            <g id="Checked" transform="translate(44.0349, 19.0006)" stroke="#198754">
                <ellipse id="Oval" stroke-width="2.6208" fill="#979797" cx="26.4336283" cy="2.76353801" rx="1.25597168" ry="1.45313801"></ellipse>
                <ellipse id="Oval-Copy" stroke-width="2.6208" fill="#979797" cx="2.56637168" cy="16.5812281" rx="1.25597168" ry="1.45313801"></ellipse>
                <path d="M2.73717673,16.7740737 C6.35049821,24.0050798 9.04770019,26.9855006 10.8287827,25.715336 C13.5004064,23.8100891 24.2105428,6.90884503 26.4721082,2.59113465" id="Path-3" stroke-width="5.2416"></path>
            </g>
        </g>
    </g>
</svg>